<svg id="svg" version="1.1" width="400" height="400" viewBox="0 0 400 400" xmlns="http://www.w3.org/2000/svg" xmlns:xlink="http://www.w3.org/1999/xlink"><g id="svgg"><path id="path0" d="M191.433 10.837 C 190.660 10.892,188.132 11.075,185.815 11.242 C 134.790 14.930,87.794 36.861,52.107 73.639 C 47.694 78.186,42.824 83.648,43.013 83.837 C 43.591 84.415,61.977 99.718,62.094 99.718 C 62.180 99.719,64.202 97.554,66.588 94.908 C 117.393 38.565,201.166 20.456,271.067 50.705 C 295.949 61.473,319.691 78.615,335.955 97.556 C 336.959 98.726,337.858 99.691,337.953 99.701 C 338.098 99.716,344.220 94.653,354.712 85.840 C 357.488 83.508,357.475 84.065,354.827 81.029 C 321.717 43.070,273.341 17.657,223.596 12.091 C 214.404 11.063,197.466 10.402,191.433 10.837 M188.062 62.385 C 148.400 65.594,110.675 84.647,84.355 114.763 L 82.623 116.744 88.573 121.710 C 91.845 124.441,96.163 128.050,98.167 129.730 L 101.812 132.785 103.083 131.352 C 154.330 73.580,243.400 72.401,294.694 128.815 C 296.579 130.888,298.204 132.584,298.305 132.584 C 298.477 132.584,304.733 127.428,313.546 120.022 L 317.400 116.783 316.829 116.056 C 311.768 109.622,300.644 99.267,291.428 92.411 C 261.734 70.321,224.315 59.451,188.062 62.385 M193.399 113.648 C 185.462 114.418,181.785 114.973,176.826 116.149 C 157.607 120.705,138.440 132.062,125.269 146.697 L 122.511 149.762 129.163 155.298 C 132.821 158.342,137.132 161.921,138.742 163.249 L 141.669 165.666 144.781 162.520 C 160.874 146.256,177.847 138.966,199.719 138.922 C 221.611 138.878,238.648 145.938,254.268 161.526 L 258.395 165.645 261.290 163.278 C 262.883 161.976,267.177 158.429,270.833 155.395 L 277.480 149.879 276.877 149.027 C 271.834 141.896,255.819 129.446,244.576 123.916 C 229.017 116.263,208.615 112.170,193.399 113.648 M181.744 196.553 C 177.360 210.886,172.611 226.404,171.190 231.039 C 168.749 238.999,167.436 243.301,159.224 270.225 C 155.031 283.971,148.797 304.342,136.142 345.646 C 134.059 352.444,130.316 364.705,127.823 372.893 C 125.331 381.081,123.179 388.053,123.041 388.385 C 122.648 389.331,122.594 389.326,132.874 389.326 L 142.620 389.326 159.864 375.902 C 169.347 368.518,182.261 358.457,188.561 353.542 C 196.671 347.216,200.116 344.686,200.359 344.875 C 200.548 345.022,206.770 349.876,214.185 355.662 C 229.096 367.296,251.684 384.866,255.226 387.585 L 257.503 389.333 267.332 389.259 L 277.161 389.185 276.384 386.657 C 275.721 384.500,272.344 373.442,264.888 349.017 C 255.118 317.013,249.934 300.061,245.648 286.096 C 243.893 280.379,240.671 269.824,238.488 262.640 C 236.304 255.456,233.141 245.091,231.458 239.607 C 229.775 234.122,225.418 219.902,221.775 208.006 C 218.132 196.110,214.059 182.824,212.723 178.482 L 210.294 170.587 200.004 170.540 L 189.714 170.494 181.744 196.553 M201.239 223.666 C 201.828 225.713,202.854 229.157,203.519 231.320 C 204.184 233.483,206.268 240.309,208.150 246.489 C 211.816 258.528,222.685 293.993,232.292 325.260 C 235.540 335.831,238.150 344.528,238.093 344.585 C 238.035 344.643,231.874 339.920,224.401 334.089 C 201.247 316.024,200.144 315.169,200.000 315.175 C 199.923 315.178,191.343 321.820,180.935 329.934 C 170.526 338.049,161.965 344.643,161.910 344.587 C 161.854 344.532,163.268 339.755,165.050 333.971 C 166.832 328.187,169.217 320.421,170.350 316.713 C 171.483 313.006,173.932 305.042,175.792 299.017 C 178.965 288.738,184.584 270.428,190.403 251.404 C 195.424 234.988,198.585 224.536,199.217 222.263 C 200.035 219.316,199.974 219.274,201.239 223.666 " stroke="none" fill="#e9f3fb" fill-rule="evenodd"></path><path id="path1" d="M0.000 200.000 L 0.000 400.000 200.000 400.000 L 400.000 400.000 400.000 200.000 L 400.000 0.000 200.000 0.000 L 0.000 0.000 0.000 200.000 M214.888 11.118 C 258.735 14.594,298.432 30.715,332.163 58.744 C 342.670 67.475,358.029 83.158,356.996 84.102 C 356.487 84.566,348.944 90.895,342.894 95.931 C 337.256 100.626,338.101 100.350,336.236 98.105 C 321.376 80.210,296.372 61.983,272.051 51.315 C 201.768 20.489,118.337 38.221,66.774 94.944 C 64.316 97.647,62.223 99.883,62.122 99.913 C 61.863 99.987,43.174 84.201,43.049 83.802 C 42.915 83.375,45.929 79.876,51.219 74.317 C 93.233 30.168,154.886 6.361,214.888 11.118 M213.483 62.346 C 249.313 65.879,281.869 80.909,307.038 105.537 C 312.535 110.916,317.275 116.086,317.275 116.704 C 317.275 117.043,314.472 119.510,308.127 124.752 C 306.515 126.084,303.635 128.472,301.725 130.059 L 298.254 132.946 296.259 130.728 C 253.728 83.479,185.511 73.630,131.815 106.987 C 121.963 113.108,109.495 123.758,103.371 131.284 C 101.779 133.241,102.285 133.385,97.954 129.745 C 95.912 128.030,91.625 124.459,88.428 121.810 C 85.230 119.161,82.607 116.900,82.599 116.785 C 82.536 115.895,95.548 102.722,100.843 98.317 C 127.108 76.466,157.090 64.418,191.292 61.973 C 194.083 61.773,210.469 62.049,213.483 62.346 M210.955 113.939 C 232.506 116.308,251.287 124.841,268.190 139.941 C 271.595 142.983,277.541 149.290,277.510 149.826 C 277.500 149.999,274.308 152.761,270.417 155.963 C 266.526 159.166,262.331 162.621,261.096 163.642 C 259.860 164.663,258.708 165.557,258.537 165.629 C 258.365 165.701,256.659 164.157,254.745 162.197 C 223.580 130.295,173.682 131.051,143.622 163.881 C 141.569 166.123,142.028 166.184,138.423 163.192 C 127.018 153.728,122.472 149.892,122.472 149.734 C 122.472 149.633,123.578 148.351,124.930 146.885 C 147.586 122.313,178.709 110.394,210.955 113.939 M211.999 175.562 C 217.090 192.099,235.171 251.160,239.604 265.730 C 241.789 272.914,245.013 283.469,246.768 289.185 C 248.522 294.902,253.878 312.409,258.669 328.090 C 263.460 343.771,268.830 361.341,270.601 367.135 C 275.719 383.869,277.247 388.929,277.247 389.134 C 277.247 389.240,272.728 389.323,267.205 389.320 L 257.163 389.313 251.124 384.633 C 247.802 382.059,240.850 376.649,235.674 372.611 C 230.499 368.574,221.587 361.622,215.871 357.162 C 210.154 352.703,204.299 348.120,202.858 346.977 C 201.418 345.835,200.079 344.961,199.883 345.036 C 199.687 345.112,192.270 350.836,183.401 357.757 C 174.532 364.679,161.778 374.613,155.058 379.834 L 142.841 389.326 132.797 389.326 C 126.653 389.326,122.753 389.222,122.753 389.059 C 122.753 388.913,123.059 387.807,123.434 386.602 C 123.809 385.396,125.969 378.343,128.234 370.927 C 130.499 363.511,134.038 351.945,136.097 345.225 C 138.157 338.504,140.983 329.277,142.376 324.719 C 143.770 320.162,146.868 310.049,149.260 302.247 C 151.651 294.445,154.746 284.333,156.135 279.775 C 161.449 262.349,168.699 238.597,170.927 231.320 C 174.495 219.664,187.570 176.898,188.533 173.736 C 189.003 172.191,189.445 170.831,189.516 170.713 C 189.586 170.595,194.333 170.532,200.065 170.572 L 210.486 170.646 211.999 175.562 M199.941 220.667 C 199.857 220.810,199.572 221.685,199.309 222.612 C 198.783 224.462,194.129 239.805,190.873 250.421 C 189.736 254.129,186.447 264.874,183.564 274.298 C 180.681 283.722,176.509 297.310,174.291 304.494 C 165.180 334.016,162.072 344.188,162.144 344.254 C 162.185 344.293,170.727 337.701,181.125 329.605 L 200.031 314.885 217.923 328.835 C 227.763 336.507,236.305 343.167,236.903 343.635 C 237.802 344.337,237.964 344.390,237.833 343.942 C 237.746 343.643,232.746 327.346,226.722 307.725 C 212.282 260.695,204.312 234.593,201.424 224.881 C 200.693 222.420,200.025 220.524,199.941 220.667 " stroke="none" fill="#111b33" fill-rule="evenodd"></path><path id="path2" d="M198.385 10.602 C 199.428 10.656,201.134 10.656,202.177 10.602 C 203.220 10.548,202.367 10.503,200.281 10.503 C 198.195 10.503,197.342 10.548,198.385 10.602 M189.396 10.868 C 189.666 10.938,190.109 10.938,190.379 10.868 C 190.650 10.797,190.428 10.739,189.888 10.739 C 189.347 10.739,189.126 10.797,189.396 10.868 M209.621 10.868 C 209.891 10.938,210.334 10.938,210.604 10.868 C 210.874 10.797,210.653 10.739,210.112 10.739 C 209.572 10.739,209.350 10.797,209.621 10.868 M191.362 36.430 C 191.633 36.500,192.075 36.500,192.346 36.430 C 192.616 36.359,192.395 36.301,191.854 36.301 C 191.313 36.301,191.092 36.359,191.362 36.430 M207.517 36.435 C 207.867 36.502,208.372 36.499,208.641 36.429 C 208.909 36.359,208.624 36.304,208.006 36.307 C 207.388 36.310,207.168 36.367,207.517 36.435 M193.333 61.999 C 193.759 62.064,194.392 62.062,194.737 61.995 C 195.082 61.929,194.733 61.876,193.961 61.878 C 193.188 61.880,192.906 61.935,193.333 61.999 M204.565 61.999 C 204.989 62.063,205.685 62.063,206.110 61.999 C 206.534 61.935,206.187 61.882,205.337 61.882 C 204.487 61.882,204.140 61.935,204.565 61.999 M50.685 74.789 L 49.860 75.702 50.772 74.877 C 51.275 74.423,51.685 74.013,51.685 73.964 C 51.685 73.747,51.454 73.938,50.685 74.789 M193.048 87.553 C 193.318 87.624,193.761 87.624,194.031 87.553 C 194.301 87.483,194.080 87.425,193.539 87.425 C 192.999 87.425,192.777 87.483,193.048 87.553 M206.531 87.553 C 206.801 87.624,207.244 87.624,207.514 87.553 C 207.784 87.483,207.563 87.425,207.022 87.425 C 206.482 87.425,206.261 87.483,206.531 87.553 M328.652 90.028 C 329.491 90.878,330.241 91.573,330.318 91.573 C 330.395 91.573,329.772 90.878,328.933 90.028 C 328.093 89.178,327.344 88.483,327.266 88.483 C 327.189 88.483,327.813 89.178,328.652 90.028 M303.371 102.054 C 303.371 102.103,303.782 102.513,304.284 102.967 L 305.197 103.792 304.372 102.879 C 303.603 102.028,303.371 101.837,303.371 102.054 M95.067 103.441 L 94.242 104.354 95.154 103.529 C 96.005 102.760,96.197 102.528,95.980 102.528 C 95.931 102.528,95.520 102.939,95.067 103.441 M198.806 113.408 C 199.463 113.467,200.537 113.467,201.194 113.408 C 201.850 113.349,201.313 113.300,200.000 113.300 C 198.687 113.300,198.150 113.349,198.806 113.408 M271.770 143.539 C 272.998 144.775,274.067 145.787,274.144 145.787 C 274.221 145.787,273.279 144.775,272.051 143.539 C 270.822 142.303,269.753 141.292,269.676 141.292 C 269.599 141.292,270.541 142.303,271.770 143.539 M254.213 161.657 C 255.209 162.662,256.086 163.483,256.164 163.483 C 256.241 163.483,255.490 162.662,254.494 161.657 C 253.499 160.653,252.622 159.831,252.544 159.831 C 252.467 159.831,253.218 160.653,254.213 161.657 " stroke="none" fill="#647180" fill-rule="evenodd"></path><path id="path3" d="" stroke="none" fill="#84949e" fill-rule="evenodd"></path><path id="path4" d="M197.963 36.163 C 198.929 36.218,200.509 36.218,201.475 36.163 C 202.440 36.108,201.650 36.063,199.719 36.063 C 197.788 36.063,196.998 36.108,197.963 36.163 M197.963 62.006 C 198.929 62.061,200.509 62.061,201.475 62.006 C 202.440 61.951,201.650 61.906,199.719 61.906 C 197.788 61.906,196.998 61.951,197.963 62.006 M343.118 68.820 C 343.721 69.438,344.278 69.944,344.356 69.944 C 344.433 69.944,344.002 69.438,343.399 68.820 C 342.795 68.202,342.239 67.697,342.161 67.697 C 342.084 67.697,342.515 68.202,343.118 68.820 M54.628 70.857 L 52.388 73.174 54.705 70.934 C 56.857 68.853,57.151 68.539,56.946 68.539 C 56.903 68.539,55.861 69.582,54.628 70.857 M347.753 73.403 C 347.753 73.451,348.164 73.862,348.666 74.315 L 349.579 75.140 348.754 74.228 C 347.985 73.377,347.753 73.185,347.753 73.403 M324.157 85.481 C 324.157 85.529,324.568 85.940,325.070 86.394 L 325.983 87.219 325.158 86.306 C 324.389 85.455,324.157 85.264,324.157 85.481 M71.905 89.256 L 69.242 91.994 71.980 89.331 C 74.524 86.858,74.847 86.517,74.643 86.517 C 74.602 86.517,73.369 87.749,71.905 89.256 M199.092 87.282 C 199.597 87.345,200.355 87.343,200.778 87.279 C 201.200 87.215,200.787 87.164,199.860 87.166 C 198.933 87.167,198.587 87.220,199.092 87.282 M331.742 93.118 C 332.266 93.659,332.758 94.101,332.835 94.101 C 332.912 94.101,332.547 93.659,332.022 93.118 C 331.498 92.577,331.006 92.135,330.929 92.135 C 330.852 92.135,331.217 92.577,331.742 93.118 M305.337 104.020 C 305.337 104.069,305.748 104.480,306.250 104.933 L 307.163 105.758 306.338 104.846 C 305.569 103.995,305.337 103.803,305.337 104.020 M91.146 107.374 L 88.624 109.972 91.222 107.450 C 93.635 105.107,93.948 104.775,93.744 104.775 C 93.702 104.775,92.533 105.945,91.146 107.374 M288.483 122.560 C 288.483 122.608,288.894 123.019,289.396 123.473 L 290.309 124.298 289.484 123.385 C 288.715 122.534,288.483 122.343,288.483 122.560 M292.135 126.264 C 292.659 126.805,293.151 127.247,293.228 127.247 C 293.305 127.247,292.940 126.805,292.416 126.264 C 291.892 125.723,291.400 125.281,291.322 125.281 C 291.245 125.281,291.611 125.723,292.135 126.264 M143.943 163.272 L 143.118 164.185 144.031 163.360 C 144.533 162.907,144.944 162.496,144.944 162.447 C 144.944 162.230,144.712 162.422,143.943 163.272 M204.846 170.699 C 205.116 170.770,205.558 170.770,205.829 170.699 C 206.099 170.629,205.878 170.571,205.337 170.571 C 204.796 170.571,204.575 170.629,204.846 170.699 " stroke="none" fill="#8c94a3" fill-rule="evenodd"></path></g></svg>